PathFileType	4	(X/Y/Z)	/Users/niels/Desktop/University/Third Semester/Perception and Action/Exam/Gymnastics Motion Tracking/Code for Gym Tracking/Analyzed Data/Start Salto/stsalto_bad_id2_1_Sports2D/stsalto_bad_id2_1_Sports2D_px_person00.trc
DataRate	CameraRate	NumFrames	NumMarkers	Units	OrigDataRate	OrigDataStartFrame	OrigNumFrames
29.84771573604061	29.84771573604061	8	22	m	29.84771573604061	0	197
Frame#	Time	Hip			RHip			RKnee			RAnkle			RBigToe			RSmallToe			RHeel			LHip			LKnee			LAnkle			LBigToe			LSmallToe			LHeel			Neck			Head			Nose			RShoulder			RElbow			RWrist			LShoulder			LElbow			LWrist		
		X1	Y1	Z1	X2	Y2	Z2	X3	Y3	Z3	X4	Y4	Z4	X5	Y5	Z5	X6	Y6	Z6	X7	Y7	Z7	X8	Y8	Z8	X9	Y9	Z9	X10	Y10	Z10	X11	Y11	Z11	X12	Y12	Z12	X13	Y13	Z13	X14	Y14	Z14	X15	Y15	Z15	X16	Y16	Z16	X17	Y17	Z17	X18	Y18	Z18	X19	Y19	Z19	X20	Y20	Z20	X21	Y21	Z21	X22	Y22	Z22
0	0.0	-0.22456816688737977	-0.5883277068431778	0.0	-0.13575736832696975	-0.5827319699451845	0.0	-0.40527031256216617	-0.7472627528399305	0.0	-0.5936300895916451	-0.9091755165914287	0.0	-0.6631305556925969	-0.9464047599241917	0.0	-0.6907298310579205	-0.9481034041943999	0.0	-0.5717532608324252	-0.9120502554573706	0.0	-0.23744653068459215	-0.5967923019700059	0.0	0.11116367581454895	-0.4195994918948147	0.0	-0.5703334109243093	-0.9249733346662233	0.0	-0.7122881248368901	-0.9997725720569968	0.0	-0.6892339348241644	-0.9946956775046281	0.0	-0.5714725377113327	-0.9099096323124514	0.0	-0.3048471849456272	-0.5342111544364555	0.0	-0.30758003105601495	-0.5091621510328797	0.0	-0.41993171600541673	-0.45423267703726683	0.0	-0.006377102647800188	-0.6202873576600219	0.0	0.3807183034377994	-0.5587211044638494	0.0	0.4647440007774846	-0.657739323852646	0.0	-0.3682520744775444	-0.538255406747006	0.0	-0.3848688836772152	-0.6407177285825472	0.0	-0.352019303862709	-0.5641106780505474	0.0
1	0.033503401360544215	-0.1941611770223817	-0.5841468492243503	0.0	-0.11784364036782345	-0.5801711067059651	0.0	-0.34135293199633243	-0.7325126061645552	0.0	-0.5074965428588054	-0.8894273795366204	0.0	-0.5619761040866319	-0.9263073972252421	0.0	-0.5877990603101607	-0.9279557067991258	0.0	-0.49017991741884115	-0.8936600926583615	0.0	-0.2041004875027705	-0.5925955699572786	0.0	0.09821983457497621	-0.45330795533017343	0.0	-0.48500444399578224	-0.9041027150863287	0.0	-0.6015777025688309	-0.9717740822873847	0.0	-0.581737312879701	-0.9668458998981917	0.0	-0.4874842527817556	-0.893875168106324	0.0	-0.2622605047130245	-0.5163524068807913	0.0	-0.26221745631433835	-0.4860092789254617	0.0	-0.3573675516125655	-0.4431514008575426	0.0	-0.005967086587998308	-0.5929064589082418	0.0	0.3328654167643637	-0.5487081634738752	0.0	0.4135386228206278	-0.6267619180995347	0.0	-0.31340391986733274	-0.5232541353161446	0.0	-0.32135982317252193	-0.6173318464918778	0.0	-0.2861932291737314	-0.5473384349663083	0.0
2	0.06700680272108843	-0.16396923922963189	-0.5799665189456074	0.0	-0.10022895768425354	-0.5776170785525007	0.0	-0.2774742935145475	-0.7176740329524329	0.0	-0.42138026458849126	-0.8695909226551117	0.0	-0.46074385957546865	-0.9061377374724819	0.0	-0.4847907279008029	-0.9077288564984588	0.0	-0.40867021331341175	-0.8751793712948308	0.0	-0.17094547204263344	-0.5884145252580111	0.0	0.08468104943342247	-0.4872899795633829	0.0	-0.4000464416942015	-0.8830080026425624	0.0	-0.49128055663600434	-0.9435898285697791	0.0	-0.47463122230121346	-0.9387790789816528	0.0	-0.4038625392474663	-0.8775575244468293	0.0	-0.2199119557142041	-0.49838056748080745	0.0	-0.21708599864436254	-0.4627284496351531	0.0	-0.29493880885995677	-0.43200345443438853	0.0	-0.0060625868747996164	-0.5653926202685277	0.0	0.28414356214518693	-0.5385938878746468	0.0	0.3612370259044621	-0.5956000491929252	0.0	-0.25871983835936724	-0.5081601034819107	0.0	-0.25800226748794347	-0.5938354796619193	0.0	-0.22053272587983552	-0.530456759046655	0.0
3	0.10051020408163264	-0.1339251829281698	-0.5757320824577382	0.0	-0.08287012067907909	-0.5749884912790015	0.0	-0.21350862491113595	-0.7026680824128927	0.0	-0.33515664777647936	-0.8496159836847555	0.0	-0.35927220001454113	-0.8858333649327993	0.0	-0.3815493690220816	-0.8873636176906711	0.0	-0.3271090682005292	-0.8565630590656177	0.0	-0.13789627170666385	-0.5841787776390173	0.0	0.07067426158708554	-0.5215228762695417	0.0	-0.31601853460977036	-0.8614849907624221	0.0	-0.3821760282426297	-0.9151643461295182	0.0	-0.36867587195516627	-0.9104129603662009	0.0	-0.3211951960289618	-0.8606455903555302	0.0	-0.177710003125693	-0.4802415388846856	0.0	-0.17206586527884996	-0.4392478154497149	0.0	-0.23253843531019486	-0.4207318356347005	0.0	-0.00664483218741209	-0.537665142251728	0.0	0.23424837102159032	-0.5281006776451405	0.0	0.307424814482033	-0.5640952607632865	0.0	-0.2041066096375318	-0.4929121617165359	0.0	-0.19468862488256297	-0.5701717499018036	0.0	-0.1549099446733143	-0.5134291731919922	0.0
4	0.13401360544217686	-0.10387230492564431	-0.5713565891905323	0.0	-0.06552369943901365	-0.5721166359043152	0.0	-0.14951228926198348	-0.6874888489238792	0.0	-0.2490349014095428	-0.8295968886340721	0.0	-0.25784450308364504	-0.8654387424340825	0.0	-0.2783808135855746	-0.8669186261442354	0.0	-0.24566455575580076	-0.8379100217551158	0.0	-0.10478509519881495	-0.5797521721434014	0.0	0.05706252140067086	-0.5555387605294951	0.0	-0.2345033960489959	-0.8393520944420212	0.0	-0.2765217944396174	-0.8866783026779507	0.0	-0.2660685331191557	-0.8818811314640299	0.0	-0.24111238307377098	-0.8427045926632385	0.0	-0.13549365580065606	-0.4620257725912448	0.0	-0.1269552066211963	-0.4156593618153542	0.0	-0.17017548519216597	-0.40933847241045673	0.0	-0.007247888316342432	-0.5098302327042886	0.0	0.183509045251746	-0.516696009568	0.0	0.2523047872059543	-0.5322223221424404	0.0	-0.14953731941734305	-0.4775470272808186	0.0	-0.13142063901600792	-0.5464451003613389	0.0	-0.08928410745700932	-0.4963506096510051	0.0
5	0.16751700680272108	-0.07347432002569197	-0.5667231645524125	0.0	-0.04758586312825575	-0.5687297385852664	0.0	-0.0857982831699726	-0.6722764426389244	0.0	-0.16369312126392446	-0.8098666908195052	0.0	-0.15739855983222334	-0.8451802458090991	0.0	-0.17626559148159246	-0.8466511945490282	0.0	-0.16488903471453994	-0.8195565418041408	0.0	-0.07128306380929222	-0.5749211836544607	0.0	0.04587468349836999	-0.5881859482119925	0.0	-0.15827567253619534	-0.8165618003965938	0.0	-0.17834448264211472	-0.8586987812322254	0.0	-0.17072579770098284	-0.8536881274653872	0.0	-0.16645391633104628	-0.8232665148476241	0.0	-0.09294613167307471	-0.44407006659267034	0.0	-0.08138725625547073	-0.3923351755832501	0.0	-0.10799102434307466	-0.3979403743938816	0.0	-0.006638970341589674	-0.48231017921586233	0.0	0.13345550181265106	-0.5035749040036572	0.0	0.19732861382977093	-0.5002254912720389	0.0	-0.0950383627176372	-0.462278235730226	0.0	-0.06831827428951588	-0.5230258067137714	0.0	-0.02370222534660309	-0.4795326672312933	0.0
6	0.20102040816326527	-0.042142703385802054	-0.5617149190591536	0.0	-0.027961800595787893	-0.5644892027900189	0.0	-0.022993513096065354	-0.6574076450251514	0.0	-0.08035404698250295	-0.7910781459791202	0.0	-0.05967052724537237	-0.8255410737304131	0.0	-0.0770000014567295	-0.8270946638473309	0.0	-0.08576582304948104	-0.8021553779710415	0.0	-0.03684683810373581	-0.5694237946194811	0.0	0.040562626523543935	-0.6174889254328124	0.0	-0.09092214120305049	-0.7934078562666558	0.0	-0.09296578694394128	-0.8323061688162552	0.0	-0.08782375378242133	-0.8268610517237117	0.0	-0.10087407410738772	-0.8021049373182537	0.0	-0.049524799848531156	-0.42705117344872834	0.0	-0.03477797908863767	-0.3700380288168305	0.0	-0.04625579393603532	-0.3868371077064154	0.0	-0.002562707033906796	-0.4559635960273518	0.0	0.08742851105299985	-0.4878271659780547	0.0	0.14594903592978892	-0.4687959420544548	0.0	-0.04066399702724857	-0.4475801688040047	0.0	-0.005610124019524332	-0.5006421434651086	0.0	0.041707385793514004	-0.46357875303670576	0.0
7	0.2345238095238095	-0.00904714039876147	-0.5562903486357548	0.0	-0.005082741103741206	-0.559122578996934	0.0	0.0379814023665916	-0.6435715447214537	0.0	-0.0006752331933963941	-0.7742055442254576	0.0	0.032904666977204594	-0.8072895026371398	0.0	0.016920526509971758	-0.8090800985951246	0.0	-0.009599883124243662	-0.7866740862524617	0.0	-0.0007530890179852718	-0.5630539676214869	0.0	0.045705498064828105	-0.6408223541284727	0.0	-0.03545774107072315	-0.7708183081429839	0.0	-0.02509572136469007	-0.809086448588081	0.0	-0.021945880175313244	-0.8029953583996982	0.0	-0.047417921941328094	-0.779752604515107	0.0	-0.004469446250803347	-0.4120035651274498	0.0	0.013626471412748855	-0.3499509038476082	0.0	0.014675039952899921	-0.3765630066009581	0.0	0.008210672092539294	-0.4321116654015957	0.0	0.05090920264081021	-0.46891662250379684	0.0	0.10417023823335068	-0.43923163187320996	0.0	0.013543965814500744	-0.4342320889141682	0.0	0.056414970154473346	-0.4803867745984049	0.0	0.10675651154494514	-0.4493875277007583	0.0
